<?xml version="1.0" encoding="iso-8859-1"?>
<!-- Generator: Adobe Illustrator 19.0.0, SVG Export Plug-In . SVG Version: 6.00 Build 0)  -->
<svg version="1.1" id="Layer_1" xmlns="http://www.w3.org/2000/svg" xmlns:xlink="http://www.w3.org/1999/xlink" x="0px" y="0px"
	 viewBox="0 0 511.999 511.999" style="enable-background:new 0 0 511.999 511.999;" xml:space="preserve">
<g>
	<path style="fill:#EFAC52;" d="M364.607,278.747c0,7.293-5.911,13.201-13.201,13.201h-18.668c-7.292,0-13.201-5.909-13.201-13.201
		V42.54c0-7.29,5.91-13.201,13.201-13.201h18.668c7.29,0,13.201,5.911,13.201,13.201V278.747z"/>
	<path style="fill:#EFAC52;" d="M454.393,278.747c0,7.293-5.91,13.201-13.201,13.201h-18.666c-7.292,0-13.201-5.909-13.201-13.201
		V42.54c0-7.29,5.91-13.201,13.201-13.201h18.666c7.292,0,13.201,5.911,13.201,13.201V278.747z"/>
</g>
<path style="fill:#FEE298;" d="M319.537,210.463c0,7.293-5.911,13.201-13.201,13.201h-18.668c-7.292,0-13.201-5.909-13.201-13.201
	V78.417c0-7.29,5.91-13.201,13.201-13.201h18.668c7.29,0,13.201,5.911,13.201,13.201V210.463z"/>
<path style="opacity:0.15;fill:#202020;enable-background:new    ;" d="M293.168,210.463V78.417c0-7.286,5.9-13.19,13.184-13.201
	c-0.007,0-0.012,0-0.018,0h-18.668c-7.292,0-13.201,5.911-13.201,13.201v132.046c0,7.293,5.91,13.201,13.201,13.201h18.668
	c0.005,0,0.011,0,0.018,0C299.069,223.656,293.168,217.749,293.168,210.463z"/>
<g>
	<path style="fill:#FEE298;" d="M409.325,265.617c0,7.29-5.911,13.201-13.201,13.201h-18.668c-7.29,0-13.201-5.911-13.201-13.201
		v-187.2c0-7.29,5.911-13.201,13.201-13.201h18.668c7.29,0,13.201,5.911,13.201,13.201V265.617z"/>
	<path style="fill:#FEE298;" d="M499.464,235.097c0,7.29-5.91,13.201-13.201,13.201h-18.668c-7.29,0-13.201-5.911-13.201-13.201
		V78.417c0-7.29,5.911-13.201,13.201-13.201h18.668c7.292,0,13.201,5.911,13.201,13.201V235.097z"/>
</g>
<path style="fill:#E95353;" d="M510.201,197.878c-1.248-1.321-2.985-2.072-4.801-2.072h-62.929c-3.645,0-6.601,2.957-6.601,6.601
	v17.316c0,1.747-0.251,3.468-0.746,5.12c-0.32,1.068-0.743,2.106-1.26,3.092c-0.25,0.48-0.528,0.956-0.829,1.418
	c-3.094,4.753-8.234,7.589-13.756,7.589h-63.592c-5.52,0-10.661-2.838-13.757-7.593c-1.854-2.847-2.833-6.175-2.833-9.626v-17.316
	c0-3.645-2.955-6.601-6.601-6.601h-62.928c-1.816,0-3.553,0.75-4.801,2.072c-1.248,1.321-1.894,3.1-1.788,4.914l15.775,270.493
	c0.204,3.49,3.094,6.216,6.59,6.216h204.279c3.496,0,6.387-2.726,6.59-6.216l15.775-270.493
	C512.095,200.979,511.447,199.2,510.201,197.878z"/>
<path style="opacity:0.15;fill:#202020;enable-background:new    ;" d="M269.265,310.56h15.265
	c7.1-13.206,16.52-37.842-0.381-65.468l-2.466-42.301c-0.107-1.813,0.54-3.593,1.788-4.914c1.248-1.321,2.985-2.072,4.801-2.072
	h-18.702c-1.816,0-3.553,0.75-4.801,2.072c-1.248,1.321-1.894,3.1-1.788,4.914L269.265,310.56z"/>
<path style="fill:#EFAC52;" d="M282.117,438.138h-98.156c-1.766,0-3.46,0.707-4.699,1.966l-18.781,19.044l-18.779-19.044
	c-1.242-1.26-2.934-1.966-4.701-1.966H10.72c-3.644,0-6.601,2.954-6.601,6.601v21.261c0,9.188,5.245,16.661,11.691,16.661h261.217
	c6.446,0,11.691-7.473,11.691-16.661v-21.261C288.718,441.092,285.763,438.138,282.117,438.138z"/>
<g style="opacity:0.15;">
	<path style="fill:#202020;" d="M23.006,465.999v-21.261c0-3.647,2.954-6.601,6.601-6.601H10.72c-3.644,0-6.601,2.954-6.601,6.601
		v21.261c0,9.188,5.245,16.661,11.691,16.661h18.885C28.249,482.661,23.006,475.188,23.006,465.999z"/>
</g>
<path style="fill:#EFAC52;" d="M286.033,284.268c-10.023-54.751-85.3-70.702-138.516-70.702l0,0
	c-53.053,0-130.427,15.7-140.624,70.2c0,0-4.729,37.301,13.079,37.301h257.696C282.606,319.985,289.157,304.933,286.033,284.268z"/>
<g>
	<path style="fill:#D33D3D;" d="M99.89,400.371H27.288h-0.857c-11.594,0-20.992,8.826-20.992,19.716v0.196
		c0,10.887,9.398,19.719,20.992,19.719H138.97L99.89,400.371z"/>
	<path style="fill:#D33D3D;" d="M269.185,400.371h-48.108L181.997,440h87.189c11.594,0,20.99-8.831,20.99-19.719v-0.196
		C290.176,409.197,280.78,400.371,269.185,400.371z"/>
</g>
<g>
	<path style="fill:#FEE298;" d="M88.359,257.173c-4.557,0-8.251-3.693-8.251-8.251v-1.246c0-4.558,3.694-8.251,8.251-8.251
		c4.558,0,8.251,3.693,8.251,8.251v1.246C96.61,253.479,92.917,257.173,88.359,257.173z"/>
	<path style="fill:#FEE298;" d="M128.434,257.173c-4.557,0-8.251-3.693-8.251-8.251v-1.246c0-4.558,3.694-8.251,8.251-8.251
		c4.558,0,8.251,3.693,8.251,8.251v1.246C136.685,253.479,132.992,257.173,128.434,257.173z"/>
	<path style="fill:#FEE298;" d="M168.507,257.173c-4.557,0-8.251-3.693-8.251-8.251v-1.246c0-4.558,3.694-8.251,8.251-8.251
		c4.558,0,8.251,3.693,8.251,8.251v1.246C176.758,253.479,173.064,257.173,168.507,257.173z"/>
	<path style="fill:#FEE298;" d="M208.582,257.173c-4.557,0-8.251-3.693-8.251-8.251v-1.246c0-4.558,3.694-8.251,8.251-8.251
		c4.558,0,8.251,3.693,8.251,8.251v1.246C216.833,253.479,213.139,257.173,208.582,257.173z"/>
	<path style="fill:#FEE298;" d="M108.398,287.69c-4.558,0-8.251-3.693-8.251-8.251v-1.244c0-4.558,3.693-8.251,8.251-8.251
		c4.557,0,8.251,3.693,8.251,8.251v1.244C116.649,283.997,112.955,287.69,108.398,287.69z"/>
	<path style="fill:#FEE298;" d="M148.471,287.69c-4.558,0-8.251-3.693-8.251-8.251v-1.244c0-4.558,3.693-8.251,8.251-8.251
		c4.557,0,8.251,3.693,8.251,8.251v1.244C156.722,283.997,153.027,287.69,148.471,287.69z"/>
	<path style="fill:#FEE298;" d="M188.546,287.69c-4.558,0-8.251-3.693-8.251-8.251v-1.244c0-4.558,3.693-8.251,8.251-8.251
		c4.557,0,8.251,3.693,8.251,8.251v1.244C196.797,283.997,193.101,287.69,188.546,287.69z"/>
</g>
<path style="fill:#7DC44E;" d="M288.226,353.618H8.251c-4.557,0-8.251-3.693-8.251-8.251c0-4.558,3.694-8.251,8.251-8.251h279.975
	c4.558,0,8.251,3.693,8.251,8.251C296.477,349.924,292.784,353.618,288.226,353.618z"/>
<g>
	<path style="opacity:0.15;fill:#202020;enable-background:new    ;" d="M25.778,283.765c9.606-51.334,78.806-68.241,131.147-70.033
		c-3.197-0.11-6.34-0.165-9.408-0.165c-53.053,0-130.427,15.7-140.624,70.2c0,0-4.729,37.301,13.079,37.301h18.887
		C21.049,321.065,25.778,283.765,25.778,283.765z"/>
	<path style="opacity:0.15;fill:#202020;enable-background:new    ;" d="M24.325,420.282v-0.196c0-10.889,9.398-19.716,20.99-19.716
		H27.288h-0.857c-11.594,0-20.992,8.826-20.992,19.716v0.196c0,10.887,9.398,19.719,20.992,19.719h18.885
		C33.723,440,24.325,431.17,24.325,420.282z"/>
</g>
<path style="fill:#FCAF29;" d="M231.737,389.846c-0.856-2.045-2.857-3.377-5.075-3.377H94.303c-2.218,0-4.218,1.332-5.075,3.377
	c-0.855,2.045-0.398,4.405,1.158,5.985l66.179,67.107c1.033,1.048,2.446,1.639,3.918,1.639c1.472,0,2.881-0.591,3.916-1.639
	l66.181-67.107C232.136,394.251,232.593,391.892,231.737,389.846z"/>
<path style="opacity:0.15;fill:#202020;enable-background:new    ;" d="M109.272,395.831c-1.558-1.58-2.014-3.938-1.158-5.985
	c0.855-2.045,2.856-3.377,5.074-3.377H94.303c-2.218,0-4.218,1.332-5.075,3.377c-0.855,2.045-0.398,4.405,1.158,5.985l66.179,67.107
	c1.033,1.048,2.446,1.639,3.918,1.639c1.472,0,2.881-0.591,3.916-1.639l5.526-5.604L109.272,395.831z"/>
<path style="fill:#8C5549;" d="M279.993,388.269c0,7.293-5.911,13.201-13.201,13.201H29.686c-7.29,0-13.201-5.909-13.201-13.201
	v-1.218c0-7.29,5.911-13.201,13.201-13.201H266.79c7.29,0,13.201,5.911,13.201,13.201v1.218H279.993z"/>
<path style="opacity:0.15;fill:#202020;enable-background:new    ;" d="M35.371,387.169v-1.218c0-7.29,5.91-13.201,13.201-13.201
	H29.686c-7.29,0-13.201,5.911-13.201,13.201v1.218c0,7.293,5.911,13.201,13.201,13.201h18.887
	C41.282,400.371,35.371,394.462,35.371,387.169z"/>
<g>
</g>
<g>
</g>
<g>
</g>
<g>
</g>
<g>
</g>
<g>
</g>
<g>
</g>
<g>
</g>
<g>
</g>
<g>
</g>
<g>
</g>
<g>
</g>
<g>
</g>
<g>
</g>
<g>
</g>
</svg>
